<svg xmlns="http://www.w3.org/2000/svg" viewBox="0 0 80 80" width="160px" height="160px"><path fill="#e1ebf2" d="M8,65.5c-3.033,0-5.5-2.467-5.5-5.5V20c0-3.033,2.467-5.5,5.5-5.5h64c3.033,0,5.5,2.467,5.5,5.5v40 c0,3.033-2.467,5.5-5.5,5.5H8z"/><path fill="#788b9c" d="M72,15c2.757,0,5,2.243,5,5v40c0,2.757-2.243,5-5,5H8c-2.757,0-5-2.243-5-5V20c0-2.757,2.243-5,5-5 H72 M72,14H8c-3.314,0-6,2.686-6,6v40c0,3.314,2.686,6,6,6h64c3.314,0,6-2.686,6-6V20C78,16.686,75.314,14,72,14L72,14z"/><path fill="#ffc49c" d="M31.368,65.5c11.306-2.375,37.313-9.247,46.132-23.575V60c0,3.033-2.467,5.5-5.5,5.5H31.368z"/><path fill="#a16a4a" d="M77,43.578V60c0,2.757-2.243,5-5,5H35.844C48.064,62.049,68.444,55.537,77,43.578 M78,40 c-9.683,19.413-52,26-52,26h46c3.314,0,6-2.686,6-6V40L78,40z"/><path fill="#ffc49c" d="M41.81,43.5c-2.581,0-4.526-1.935-4.526-4.5s1.946-4.5,4.526-4.5s4.526,1.935,4.526,4.5 S44.39,43.5,41.81,43.5z"/><path fill="#a16a4a" d="M41.81,35c2.295,0,4.026,1.72,4.026,4s-1.731,4-4.026,4c-2.295,0-4.026-1.72-4.026-4 S39.514,35,41.81,35 M41.81,34c-2.848,0-5.026,2.167-5.026,5s2.178,5,5.026,5c2.848,0,5.026-2.167,5.026-5S44.658,34,41.81,34 L41.81,34z"/><g><path fill="#36404d" d="M17.244,34.164H19.2V44h-1.956V34.164z M27.911,39.082c0,2.787,2.311,4.918,5.333,4.918 c0.889,0,1.6-0.164,2.489-0.492v-2.131c-0.711,0.656-1.422,0.984-2.489,0.984c-1.956,0-3.378-1.311-3.378-3.279 c0-1.803,1.422-3.279,3.378-3.279c0.889,0,1.6,0.328,2.489,0.984v-2.131C34.844,34.328,34.133,34,33.244,34 C30.222,34.164,27.911,36.459,27.911,39.082z M51.733,40.557l-2.844-6.393h-2.133L51.2,44h1.067l4.444-9.836h-2.133L51.733,40.557 z M57.6,44h5.689v-1.639h-3.733v-2.623h3.556v-1.639h-3.556v-2.295h3.733v-1.639H57.6L57.6,44z M71.111,37.115 c0-1.803-1.244-2.951-3.556-2.951h-3.022V44h1.956v-3.934h0.178L69.511,44H72l-3.2-4.098 C70.222,39.574,71.111,38.59,71.111,37.115z M67.022,38.754h-0.533v-2.951h0.533c1.244,0,1.956,0.492,1.956,1.475 C68.978,38.098,68.444,38.754,67.022,38.754z M11.022,34.164H8V44h2.844c4.444,0,5.511-3.443,5.511-4.918 C16.533,36.131,14.222,34.164,11.022,34.164z M10.489,42.361H9.956v-6.557h0.711c2.667,0,3.733,1.639,3.733,3.279 C14.4,39.738,14.222,42.361,10.489,42.361z M24.533,37.934c-1.244-0.492-1.6-0.656-1.6-1.148c0-0.656,0.711-0.984,1.422-0.984 c0.533,0,1.067,0.164,1.6,0.82l1.067-1.311c-0.889-0.82-1.778-1.148-3.022-1.148c-1.778,0-3.2,1.148-3.2,2.787 c0,1.311,0.711,1.967,2.489,2.623c1.067,0.328,1.956,0.656,1.956,1.475c0,0.82-0.711,1.311-1.6,1.311 c-0.889,0-1.778-0.492-2.133-1.311l-1.244,1.148C21.156,43.508,22.222,44,23.822,44c2.133,0,3.556-1.311,3.556-3.115 C27.378,39.41,26.667,38.754,24.533,37.934z"/></g></svg>